REM DATE 2012
REM DISCID 7908A00A
REM COMMENT "ExactAudioCopy v1.0b2"
PERFORMER "Various Artists"
TITLE "Putumayo Presents Arabic Beat"
FILE "01 -Djamel Laroussi - Kifach Hilti.wav" WAVE
  TRACK 01 AUDIO
    TITLE "Kifach Hilti"
    PERFORMER "Djamel Laroussi"
    ISRC DEU030400043
    FLAGS DCP
    INDEX 01 00:00:00
  TRACK 02 AUDIO
    TITLE "Lirah (Remix)"
    PERFORMER "Ali Slimani"
    ISRC US6QR1200044
    FLAGS DCP
    INDEX 00 04:25:43
FILE "02 -Ali Slimani - Lirah (Remix).wav" WAVE
    INDEX 01 00:00:00
  TRACK 03 AUDIO
    TITLE "Narbat"
    PERFORMER "Nour"
    ISRC ES7310800031
    FLAGS DCP
    INDEX 00 04:08:53
FILE "03 -Nour - Narbat.wav" WAVE
    INDEX 01 00:00:00
  TRACK 04 AUDIO
    TITLE "Sidi H'bibi"
    PERFORMER "Jalal El Hamdaoui"
    ISRC BEN460000351
    FLAGS DCP
    INDEX 00 02:33:23
FILE "04 -Jalal El Hamdaoui - Sidi H'bibi.wav" WAVE
    INDEX 01 00:00:00
  TRACK 05 AUDIO
    TITLE "Saab Alyia"
    PERFORMER "Samira Saeid"
    ISRC EGA020501901
    FLAGS DCP
    INDEX 00 04:50:06
FILE "05 -Samira Saeid - Saab Alyia.wav" WAVE
    INDEX 01 00:00:00
  TRACK 06 AUDIO
    TITLE "Osfour"
    PERFORMER "Watcha Clan"
    ISRC DEL121104310
    FLAGS DCP
    INDEX 00 03:38:54
FILE "06 -Watcha Clan - Osfour.wav" WAVE
    INDEX 01 00:00:00
  TRACK 07 AUDIO
    TITLE "Itim"
    PERFORMER "Ahmed Soultan"
    ISRC USHM20994853
    FLAGS DCP
    INDEX 00 03:56:19
FILE "07 -Ahmed Soultan - Itim.wav" WAVE
    INDEX 01 00:00:00
  TRACK 08 AUDIO
    TITLE "Rai Mtelefni"
    PERFORMER "Choubène"
    ISRC US6QR1200045
    FLAGS DCP
    INDEX 00 03:01:08
FILE "08 -Choubène - Rai Mtelefni.wav" WAVE
    INDEX 01 00:00:00
  TRACK 09 AUDIO
    TITLE "Ajmal Gharam"
    PERFORMER "Zein Al-Jundi"
    ISRC US6QR1200046
    FLAGS DCP
    INDEX 00 03:25:12
FILE "09 -Zein Al-Jundi - Ajmal Gharam.wav" WAVE
    INDEX 01 00:00:00
  TRACK 10 AUDIO
    TITLE "Lala Torkia"
    PERFORMER "Cheb Amar"
    ISRC FR43D0700074
    FLAGS DCP
    INDEX 00 03:35:01
FILE "10 -Cheb Amar - Lala Torkia.wav" WAVE
    INDEX 01 00:00:00
